<svg xmlns="http://www.w3.org/2000/svg" width="198.678" height="200.45" viewBox="0 0 198.678 200.45">
    <defs>
        <style>
            .cls-1{fill:none;opacity:.33}.cls-2,.cls-3{stroke:none}.cls-3{fill:#09aeff}
        </style>
    </defs>
    <g id="Polygon_13" class="cls-1" data-name="Polygon 13">
        <path d="M35.506 71.356c13.317-28.371 53.67-28.371 66.988 0l10.759 22.922A37 37 0 0 1 79.759 147H58.241a37 37 0 0 1-33.494-52.722z" class="cls-2" transform="rotate(37 44.216 132.163)"/>
        <path d="M69 61.078c-10.343 0-19.141 5.59-23.536 14.952l-10.76 22.922c-3.857 8.219-3.277 17.327 1.59 24.99C41.165 131.605 49.163 136 58.242 136h21.518c9.079 0 17.078-4.395 21.946-12.058 4.868-7.663 5.448-16.771 1.59-24.99L92.537 76.03C88.141 66.668 79.343 61.078 69 61.078m0-11c13.418 0 26.835 7.093 33.494 21.278l10.76 22.922C124.77 118.816 106.864 147 79.758 147H58.241c-27.106 0-45.012-28.184-33.494-52.722l10.76-22.922C42.164 57.171 55.581 50.078 69 50.078z" class="cls-3" transform="rotate(37 44.216 132.163)"/>
    </g>
</svg>
