<svg xmlns="http://www.w3.org/2000/svg" width="54.939" height="54.965" viewBox="0 0 54.939 54.965">
    <defs>
        <style>
            .cls-1{fill:rgba(210,85,13,.75)}
        </style>
    </defs>
    <g id="Group_85" data-name="Group 85" transform="translate(-787 -2674)">
        <path id="Path_39" d="M53.86 47.9l-9.952-9.952a1.074 1.074 0 0 0-1.486-1.486L39.767 33.8a21.683 21.683 0 0 0 .276-23.834 1.073 1.073 0 0 0-1.806 1.161A19.534 19.534 0 1 1 32.1 5.084a1.073 1.073 0 1 0 1.135-1.822 21.674 21.674 0 1 0 .656 36.41l2.642 2.642a1.072 1.072 0 0 0 1.516 1.516l9.937 9.937a4.093 4.093 0 0 0 2.906 1.2A4.155 4.155 0 0 0 53.86 47.9zm-17.75-9.05l2.834-2.834 1.944 1.944-2.834 2.834zm16.212 13.377a1.992 1.992 0 0 1-2.813.021l-9.936-9.936 2.834-2.834 9.936 9.936a1.992 1.992 0 0 1-.021 2.813z" class="cls-1" data-name="Path 39" transform="translate(786.879 2674)"/>
        <g id="Group_76" data-name="Group 76" transform="translate(792.142 2679.151)">
            <g id="Group_75" data-name="Group 75">
                <path id="Path_41" d="M64.548 47.981a16.53 16.53 0 1 0 16.53 16.53 16.548 16.548 0 0 0-16.53-16.53zm0 30.913a14.383 14.383 0 1 1 14.383-14.383 14.4 14.4 0 0 1-14.383 14.383z" class="cls-1" data-name="Path 41" transform="translate(-48.018 -47.981)"/>
            </g>
        </g>
        <g id="Group_78" data-name="Group 78" transform="translate(798.582 2684.593)">
            <g id="Group_77" data-name="Group 77">
                <path id="Path_42" d="M122.182 108.367a5.125 5.125 0 0 0 1.068-3.135v-1.406a5.152 5.152 0 1 0-10.3 0v1.406a5.124 5.124 0 0 0 1.068 3.135 7.385 7.385 0 0 0-6.005 7.245v.555a1.073 1.073 0 0 0 1.073 1.073h18.032a1.073 1.073 0 0 0 1.073-1.073v-.555a7.385 7.385 0 0 0-6.009-7.245zm-7.09-4.541a3.005 3.005 0 1 1 6.011 0v1.406a3.005 3.005 0 1 1-6.011 0zm-4.912 11.267a5.235 5.235 0 0 1 5.2-4.709h5.431a5.235 5.235 0 0 1 5.2 4.709z" class="cls-1" data-name="Path 42" transform="translate(-108.008 -98.674)"/>
            </g>
        </g>
    </g>
</svg>
