<svg xmlns="http://www.w3.org/2000/svg" width="63.444" height="57.001" viewBox="0 0 63.444 57.001">
    <defs>
        <style>
            .cls-1{fill:#23dce1}
        </style>
    </defs>
    <g id="speech-bubble">
        <path id="Path_43" d="M247.239 100a1.239 1.239 0 1 0 1.239 1.239 1.24 1.24 0 0 0-1.239-1.239zm0 0" class="cls-1" data-name="Path 43" transform="translate(-215.517 -87.609)"/>
        <path id="Path_44" d="M81.239 262.478A1.239 1.239 0 1 0 80 261.239a1.24 1.24 0 0 0 1.239 1.239zm0 0" class="cls-1" data-name="Path 44" transform="translate(-70.087 -227.783)"/>
        <path id="Path_45" d="M41.635 0C30.48 0 21.324 7.691 20.615 17.379 9.991 17.912 0 25.573 0 35.935a17.315 17.315 0 0 0 4.833 11.85 7.536 7.536 0 0 1-1.991 7.1A1.239 1.239 0 0 0 3.717 57a13.669 13.669 0 0 0 9.47-3.828 28.238 28.238 0 0 0 8.621 1.35c11.154 0 20.309-7.689 21.02-17.376a27.864 27.864 0 0 0 7.428-1.322 13.669 13.669 0 0 0 9.47 3.828 1.239 1.239 0 0 0 .876-2.115 7.536 7.536 0 0 1-1.991-7.1 17.315 17.315 0 0 0 4.833-11.85C63.444 7.82 52.684 0 41.635 0zM21.809 52.044a25.05 25.05 0 0 1-8.49-1.462 1.239 1.239 0 0 0-1.373.315 11.181 11.181 0 0 1-5.561 3.3 10.021 10.021 0 0 0 .756-7.375 1.237 1.237 0 0 0-.3-.524 14.891 14.891 0 0 1-4.36-10.362c0-8.732 8.852-16.109 19.331-16.109 9.895 0 18.587 6.881 18.587 16.109 0 8.883-8.338 16.109-18.587 16.109zm34.8-23.095a1.243 1.243 0 0 0-.3.524 10.021 10.021 0 0 0 .756 7.375 11.177 11.177 0 0 1-5.561-3.3 1.24 1.24 0 0 0-1.373-.315 24.41 24.41 0 0 1-7.3 1.431 17.737 17.737 0 0 0-6.7-12.36h16.161a1.239 1.239 0 0 0 0-2.478h-19.97a23.11 23.11 0 0 0-9.222-2.442c.712-8.323 8.753-14.906 18.535-14.906 10.479 0 19.331 7.377 19.331 16.109a14.891 14.891 0 0 1-4.36 10.362zm0 0" class="cls-1" data-name="Path 45"/>
        <path id="Path_46" d="M136.852 260h-15.613a1.239 1.239 0 0 0 0 2.478h15.613a1.239 1.239 0 1 0 0-2.478zm0 0" class="cls-1" data-name="Path 46" transform="translate(-105.13 -227.783)"/>
        <path id="Path_47" d="M101.809 320h-20.57a1.239 1.239 0 1 0 0 2.478h20.57a1.239 1.239 0 1 0 0-2.478zm0 0" class="cls-1" data-name="Path 47" transform="translate(-70.087 -280.348)"/>
        <path id="Path_48" d="M302.852 100h-15.613a1.239 1.239 0 1 0 0 2.478h15.613a1.239 1.239 0 1 0 0-2.478zm0 0" class="cls-1" data-name="Path 48" transform="translate(-250.56 -87.609)"/>
    </g>
</svg>
