<svg xmlns="http://www.w3.org/2000/svg" width="11.034" height="10.483" viewBox="0 0 11.034 10.483">
    <defs>
        <style>
            .cls-1{fill:#f7d736}
        </style>
    </defs>
    <g id="favourites-filled-star-symbol" transform="translate(431 -93)">
        <path id="Path_102" d="M10.554 6.736l-3.038-.287a.525.525 0 0 1-.435-.322L5.992 3.489a.521.521 0 0 0-.967 0L3.946 6.127a.514.514 0 0 1-.435.322l-3.039.287a.525.525 0 0 0-.3.914l2.29 2.011a.521.521 0 0 1 .165.514L1.943 13a.525.525 0 0 0 .775.575l2.534-1.489a.527.527 0 0 1 .531 0l2.534 1.489A.524.524 0 0 0 9.092 13l-.679-2.821a.521.521 0 0 1 .165-.514l2.29-2.011a.532.532 0 0 0-.314-.918z" class="cls-1" data-name="Path 102" transform="translate(-431 89.838)"/>
    </g>
</svg>
