<svg xmlns="http://www.w3.org/2000/svg" width="43.387" height="43.874" viewBox="0 0 43.387 43.874">
    <defs>
        <style>
            .cls-1{opacity:.67}.cls-2{fill:#ff4f19}.cls-3{fill:#e3001e}.cls-4{fill:#ffcd00}.cls-5{fill:#ff9100}.cls-6{fill:#fff}
        </style>
    </defs>
    <g id="medal" class="cls-1" transform="rotate(180 21.694 21.937)">
        <g id="Group_91" data-name="Group 91" transform="translate(23.055 20.688)">
            <path id="Path_52" d="M.068 6.344L7.978 22.8a.686.686 0 0 0 .618.389h11.051a.686.686 0 0 0 .618-.982L9.777.389a.686.686 0 0 0-.985-.283L.319 5.467a.686.686 0 0 0-.251.877z" class="cls-2" data-name="Path 52"/>
        </g>
        <g id="Group_92" data-name="Group 92" transform="translate(27.774 20.688)">
            <path id="Path_53" d="M9.857 23.186h5.071a.686.686 0 0 0 .618-.982L5.058.389a.686.686 0 0 0-.984-.283L0 2.684z" class="cls-3" data-name="Path 53"/>
        </g>
        <g id="Group_93" data-name="Group 93" transform="translate(0 20.688)">
            <path id="Path_54" d="M20.264 6.344L12.354 22.8a.686.686 0 0 1-.618.389H.685a.686.686 0 0 1-.618-.989L10.555.389a.686.686 0 0 1 .985-.283l8.473 5.361a.686.686 0 0 1 .251.877z" class="cls-2" data-name="Path 54"/>
        </g>
        <g id="Group_94" data-name="Group 94" transform="translate(0 20.688)">
            <path id="Path_55" d="M5.757 23.186H.685a.686.686 0 0 1-.618-.986L10.555.389a.686.686 0 0 1 .985-.283l4.074 2.577z" class="cls-3" data-name="Path 55"/>
        </g>
        <g id="Group_95" data-name="Group 95" transform="translate(7.992)">
            <ellipse id="Ellipse_9" cx="13.71" cy="13.71" class="cls-4" data-name="Ellipse 9" rx="13.71" ry="13.71"/>
        </g>
        <g id="Group_96" data-name="Group 96" transform="translate(7.992)">
            <path id="Path_56" d="M13.71 0a13.667 13.667 0 0 1 9.69 4.016L4.016 23.405A13.71 13.71 0 0 1 13.71 0z" class="cls-5" data-name="Path 56"/>
        </g>
        <g id="Group_98" data-name="Group 98" transform="translate(14.487 6.923)">
            <g id="Group_97" data-name="Group 97">
                <path id="Path_57" d="M10.8 0a1.417 1.417 0 0 0-.66.164L7.216 1.7 4.291.164a1.417 1.417 0 0 0-2.054 1.494L2.8 4.914.429 7.22a1.417 1.417 0 0 0 .785 2.417l3.27.475 1.463 2.963a1.407 1.407 0 0 0 1.269.79 1.408 1.408 0 0 0 1.271-.79l1.462-2.963 3.269-.475A1.417 1.417 0 0 0 14 7.22l-2.363-2.306.563-3.256A1.42 1.42 0 0 0 10.8 0zM1.386 8.2L4.01 5.644a.686.686 0 0 0 .2-.607l-.622-3.611.385-.655-.319.607L6.9 3.083a.683.683 0 0 0 .637 0l3.244-1.705.742.164-.675-.116-.62 3.611a.686.686 0 0 0 .2.607L13.046 8.2l.073.756-.1-.678-3.619.529a.685.685 0 0 0-.516.375l-1.626 3.285h-.083L5.553 9.181a.685.685 0 0 0-.516-.375L1.411 8.28l-.5-.569z" class="cls-6" data-name="Path 57"/>
            </g>
        </g>
        <g id="Group_100" data-name="Group 100" transform="translate(31.987 13.025)">
            <g id="Group_99" data-name="Group 99">
                <path id="Path_58" d="M.686 0A.723.723 0 0 0 .2.2a.7.7 0 0 0 0 .973.709.709 0 0 0 .967 0 .7.7 0 0 0 .204-.487A.691.691 0 0 0 .686 0z" class="cls-6" data-name="Path 58"/>
            </g>
        </g>
        <g id="Group_102" data-name="Group 102" transform="translate(21.019 23.993)">
            <g id="Group_101" data-name="Group 101">
                <path id="Path_59" d="M.686 0A.71.71 0 0 0 .2.2a.7.7 0 0 0 0 .973.709.709 0 0 0 .967 0 .7.7 0 0 0 .204-.487A.691.691 0 0 0 .686 0z" class="cls-6" data-name="Path 59"/>
            </g>
        </g>
        <g id="Group_104" data-name="Group 104" transform="translate(13.259 20.778)">
            <g id="Group_103" data-name="Group 103">
                <path id="Path_60" d="M.686 0a.67.67 0 0 0-.48.206.671.671 0 0 0 0 .966.709.709 0 0 0 .967 0 .68.68 0 0 0 .2-.487.664.664 0 0 0-.2-.48A.686.686 0 0 0 .686 0z" class="cls-6" data-name="Path 60"/>
            </g>
        </g>
        <g id="Group_106" data-name="Group 106" transform="translate(28.772 5.272)">
            <g id="Group_105" data-name="Group 105">
                <path id="Path_61" d="M.685 0A.69.69 0 0 0 .2.2a.687.687 0 0 0 0 .967.7.7 0 0 0 .973 0 .692.692 0 0 0 .2-.48A.71.71 0 0 0 1.172.2.69.69 0 0 0 .685 0z" class="cls-6" data-name="Path 61"/>
            </g>
        </g>
        <g id="Group_108" data-name="Group 108" transform="translate(28.772 20.778)">
            <g id="Group_107" data-name="Group 107">
                <path id="Path_62" d="M.685 0A.722.722 0 0 0 .2.2a.722.722 0 0 0-.2.486.7.7 0 0 0 .2.487.717.717 0 0 0 .973 0 .7.7 0 0 0 .2-.487A.722.722 0 0 0 1.172.2.722.722 0 0 0 .685 0z" class="cls-6" data-name="Path 62"/>
            </g>
        </g>
        <g id="Group_110" data-name="Group 110" transform="translate(31.151 17.22)">
            <g id="Group_109" data-name="Group 109">
                <path id="Path_63" d="M.686 0A.691.691 0 0 0 0 .686a.7.7 0 0 0 .2.487.717.717 0 0 0 .973 0 .687.687 0 0 0 0-.966A.7.7 0 0 0 .686 0z" class="cls-6" data-name="Path 63"/>
            </g>
        </g>
        <g id="Group_112" data-name="Group 112" transform="translate(16.816 23.157)">
            <g id="Group_111" data-name="Group 111">
                <path id="Path_64" d="M.686 0a.668.668 0 0 0-.48.205A.669.669 0 0 0 0 .686a.7.7 0 0 0 .206.487.708.708 0 0 0 .966 0 .677.677 0 0 0 .2-.487.689.689 0 0 0-.2-.486.706.706 0 0 0-.486-.2z" class="cls-6" data-name="Path 64"/>
            </g>
        </g>
        <g id="Group_114" data-name="Group 114" transform="translate(31.151 8.83)">
            <g id="Group_113" data-name="Group 113">
                <path id="Path_65" d="M.686 0A.69.69 0 0 0 .2.2a.709.709 0 0 0-.2.486.692.692 0 0 0 .2.48.7.7 0 0 0 .973 0 .689.689 0 0 0 .2-.48A.706.706 0 0 0 1.172.2.688.688 0 0 0 .686 0z" class="cls-6" data-name="Path 65"/>
            </g>
        </g>
        <g id="Group_116" data-name="Group 116" transform="translate(25.214 23.157)">
            <g id="Group_115" data-name="Group 115">
                <path id="Path_66" d="M.686 0A.721.721 0 0 0 .2.2a.721.721 0 0 0-.2.486.7.7 0 0 0 .2.487.717.717 0 0 0 .973 0 .706.706 0 0 0 .2-.487A.719.719 0 0 0 1.172.2.718.718 0 0 0 .686 0z" class="cls-6" data-name="Path 66"/>
            </g>
        </g>
        <g id="Group_118" data-name="Group 118" transform="translate(31.768 15.212)">
            <g id="Group_117" data-name="Group 117">
                <path id="Path_67" d="M.685 0A.7.7 0 0 0 .2.2a.7.7 0 0 0 0 .974.71.71 0 0 0 .967 0 .7.7 0 0 0 .204-.488A.7.7 0 0 0 1.165.2a.693.693 0 0 0-.48-.2z" class="cls-6" data-name="Path 67"/>
            </g>
        </g>
        <g id="Group_120" data-name="Group 120" transform="translate(18.832 23.774)">
            <g id="Group_119" data-name="Group 119">
                <path id="Path_68" d="M.686 0A.706.706 0 0 0 .2.2a.678.678 0 0 0-.2.486.689.689 0 0 0 .2.487.717.717 0 0 0 .973 0 .722.722 0 0 0 .2-.487A.722.722 0 0 0 1.172.2.721.721 0 0 0 .686 0z" class="cls-6" data-name="Path 68"/>
            </g>
        </g>
        <g id="Group_122" data-name="Group 122" transform="translate(30.164 6.972)">
            <g id="Group_121" data-name="Group 121">
                <path id="Path_69" d="M.686 0A.72.72 0 0 0 .2.2a.707.707 0 0 0-.2.486.72.72 0 0 0 .2.487.718.718 0 0 0 .973 0 .723.723 0 0 0 .2-.487A.711.711 0 0 0 1.172.2.722.722 0 0 0 .686 0z" class="cls-6" data-name="Path 69"/>
            </g>
        </g>
        <g id="Group_124" data-name="Group 124" transform="translate(27.072 22.17)">
            <g id="Group_123" data-name="Group 123">
                <path id="Path_70" d="M.686 0A.721.721 0 0 0 .2.2a.721.721 0 0 0-.2.486.709.709 0 0 0 .2.487.709.709 0 0 0 .967 0 .672.672 0 0 0 .204-.487A.69.69 0 0 0 .686 0z" class="cls-6" data-name="Path 70"/>
            </g>
        </g>
        <g id="Group_126" data-name="Group 126" transform="translate(30.109 19.161)">
            <g id="Group_125" data-name="Group 125">
                <path id="Path_71" d="M.686 0A.69.69 0 0 0 .2.2a.694.694 0 0 0-.2.486.719.719 0 0 0 .2.487.717.717 0 0 0 .973 0 .692.692 0 0 0 .2-.487A.669.669 0 0 0 1.172.2.679.679 0 0 0 .686 0z" class="cls-6" data-name="Path 71"/>
            </g>
        </g>
        <g id="Group_128" data-name="Group 128" transform="translate(14.884 22.122)">
            <g id="Group_127" data-name="Group 127">
                <path id="Path_72" d="M.686 0A.678.678 0 0 0 .2.2a.687.687 0 0 0 0 .967.717.717 0 0 0 .973 0 .687.687 0 0 0 0-.967.691.691 0 0 0-.487-.2z" class="cls-6" data-name="Path 72"/>
            </g>
        </g>
        <g id="Group_130" data-name="Group 130" transform="translate(31.781 10.934)">
            <g id="Group_129" data-name="Group 129">
                <path id="Path_73" d="M.686 0A.691.691 0 0 0 .2.2a.709.709 0 0 0-.2.486.722.722 0 0 0 .2.487.717.717 0 0 0 .973 0 .689.689 0 0 0 .2-.487A.679.679 0 0 0 .686 0z" class="cls-6" data-name="Path 73"/>
            </g>
        </g>
        <g id="Group_132" data-name="Group 132" transform="translate(23.11 23.795)">
            <g id="Group_131" data-name="Group 131">
                <path id="Path_74" d="M.686 0A.678.678 0 0 0 .2.2a.706.706 0 0 0-.2.486.69.69 0 0 0 .2.48.7.7 0 0 0 .973 0 .687.687 0 0 0 0-.967A.691.691 0 0 0 .686 0z" class="cls-6" data-name="Path 74"/>
            </g>
        </g>
        <g id="Group_133" data-name="Group 133" transform="translate(14.486 6.923)">
            <path id="Path_75" d="M10.8 0a1.42 1.42 0 0 1 1.4 1.658l-.031.181-1.683 1.678.359-2.091.675.116-.742-.164-3.243 1.705a.683.683 0 0 1-.637 0L3.654 1.378l.319-.607-.385.655.619 3.611a.686.686 0 0 1-.2.607L1.386 8.2l-.479-.489.5.569 3.626.527a.677.677 0 0 1 .125.034l-1.2 1.2-2.753-.4A1.417 1.417 0 0 1 .429 7.22L2.8 4.914l-.563-3.256A1.417 1.417 0 0 1 4.291.164L7.216 1.7 10.141.164A1.415 1.415 0 0 1 10.8 0z" class="cls-4" data-name="Path 75"/>
        </g>
        <g id="Group_135" data-name="Group 135" transform="translate(10.051 13.025)">
            <g id="Group_134" data-name="Group 134">
                <path id="Path_76" d="M.686 0A.723.723 0 0 0 .2.2a.721.721 0 0 0-.2.486.721.721 0 0 0 .2.487.709.709 0 0 0 .967 0 .7.7 0 0 0 .204-.487A.691.691 0 0 0 .686 0z" class="cls-4" data-name="Path 76"/>
            </g>
        </g>
        <g id="Group_137" data-name="Group 137" transform="translate(21.019 2.057)">
            <g id="Group_136" data-name="Group 136">
                <path id="Path_77" d="M.686 0A.723.723 0 0 0 .2.2a.7.7 0 0 0 0 .973.709.709 0 0 0 .967 0 .7.7 0 0 0 .204-.487A.691.691 0 0 0 .686 0z" class="cls-4" data-name="Path 77"/>
            </g>
        </g>
        <g id="Group_139" data-name="Group 139" transform="translate(13.259 5.272)">
            <g id="Group_138" data-name="Group 138">
                <path id="Path_78" d="M.686 0a.664.664 0 0 0-.48.2A.7.7 0 0 0 0 .685a.669.669 0 0 0 .205.48.7.7 0 0 0 .967 0 .664.664 0 0 0 .2-.48.693.693 0 0 0-.2-.485.667.667 0 0 0-.486-.2z" class="cls-4" data-name="Path 78"/>
            </g>
        </g>
        <g id="Group_141" data-name="Group 141" transform="translate(10.887 8.83)">
            <g id="Group_140" data-name="Group 140">
                <path id="Path_79" d="M.686 0A.665.665 0 0 0 .2.2a.689.689 0 0 0-.2.486.661.661 0 0 0 .2.48.7.7 0 0 0 .967 0 .67.67 0 0 0 .205-.48A.7.7 0 0 0 1.165.2.663.663 0 0 0 .686 0z" class="cls-4" data-name="Path 79"/>
            </g>
        </g>
        <g id="Group_143" data-name="Group 143" transform="translate(25.214 2.893)">
            <g id="Group_142" data-name="Group 142">
                <path id="Path_80" d="M.686 0A.691.691 0 0 0 .2.2a.7.7 0 0 0-.2.486.723.723 0 0 0 .2.487.717.717 0 0 0 .973 0 .719.719 0 0 0 .2-.487A.718.718 0 0 0 1.172.2.689.689 0 0 0 .686 0z" class="cls-4" data-name="Path 80"/>
            </g>
        </g>
        <g id="Group_145" data-name="Group 145" transform="translate(10.887 17.22)">
            <g id="Group_144" data-name="Group 144">
                <path id="Path_81" d="M.686 0A.671.671 0 0 0 .2.206a.661.661 0 0 0-.2.48.666.666 0 0 0 .2.487.709.709 0 0 0 .967 0 .686.686 0 0 0 .204-.487.671.671 0 0 0-.205-.48A.67.67 0 0 0 .686 0z" class="cls-4" data-name="Path 81"/>
            </g>
        </g>
        <g id="Group_147" data-name="Group 147" transform="translate(16.816 2.893)">
            <g id="Group_146" data-name="Group 146">
                <path id="Path_82" d="M.686 0a.662.662 0 0 0-.48.2A.684.684 0 0 0 0 .686a.67.67 0 0 0 .206.48.7.7 0 0 0 .966 0 .662.662 0 0 0 .2-.48.677.677 0 0 0-.2-.486.666.666 0 0 0-.486-.2z" class="cls-4" data-name="Path 82"/>
            </g>
        </g>
        <g id="Group_149" data-name="Group 149" transform="translate(10.27 10.838)">
            <g id="Group_148" data-name="Group 148">
                <path id="Path_83" d="M.686 0A.723.723 0 0 0 .2.2a.722.722 0 0 0-.2.486.722.722 0 0 0 .2.487.717.717 0 0 0 .973 0 .719.719 0 0 0 .2-.487A.719.719 0 0 0 1.172.2.721.721 0 0 0 .686 0z" class="cls-4" data-name="Path 83"/>
            </g>
        </g>
        <g id="Group_151" data-name="Group 151" transform="translate(23.206 2.276)">
            <g id="Group_150" data-name="Group 150">
                <path id="Path_84" d="M.686 0A.7.7 0 0 0 .2.2a.7.7 0 0 0 0 .973.709.709 0 0 0 .967 0 .7.7 0 0 0 .204-.487A.7.7 0 0 0 1.165.2.691.691 0 0 0 .686 0z" class="cls-4" data-name="Path 84"/>
            </g>
        </g>
        <g id="Group_153" data-name="Group 153" transform="translate(11.874 19.078)">
            <g id="Group_152" data-name="Group 152">
                <path id="Path_85" d="M.686 0A.7.7 0 0 0 .2.2a.692.692 0 0 0-.2.486.68.68 0 0 0 .2.487.709.709 0 0 0 .967 0 .7.7 0 0 0 .204-.487A.69.69 0 0 0 .686 0z" class="cls-4" data-name="Path 85"/>
            </g>
        </g>
        <g id="Group_155" data-name="Group 155" transform="translate(14.966 3.88)">
            <g id="Group_154" data-name="Group 154">
                <path id="Path_86" d="M.685 0A.694.694 0 0 0 .2.2a.677.677 0 0 0-.2.486.662.662 0 0 0 .2.48.7.7 0 0 0 .966 0 .669.669 0 0 0 .206-.48A.691.691 0 0 0 .685 0z" class="cls-4" data-name="Path 86"/>
            </g>
        </g>
        <g id="Group_157" data-name="Group 157" transform="translate(11.922 6.89)">
            <g id="Group_156" data-name="Group 156">
                <path id="Path_87" d="M.686 0A.7.7 0 0 0 .2.205a.693.693 0 0 0-.2.48.709.709 0 0 0 .2.487.717.717 0 0 0 .973 0 .677.677 0 0 0 .2-.487.662.662 0 0 0-.2-.48A.684.684 0 0 0 .686 0z" class="cls-4" data-name="Path 87"/>
            </g>
        </g>
        <g id="Group_159" data-name="Group 159" transform="translate(27.154 3.935)">
            <g id="Group_158" data-name="Group 158">
                <path id="Path_88" d="M.686 0A.669.669 0 0 0 .2.2a.668.668 0 0 0-.2.486.664.664 0 0 0 .2.48.7.7 0 0 0 .967 0 .671.671 0 0 0 0-.966.662.662 0 0 0-.481-.2z" class="cls-4" data-name="Path 88"/>
            </g>
        </g>
        <g id="Group_161" data-name="Group 161" transform="translate(10.249 15.116)">
            <g id="Group_160" data-name="Group 160">
                <path id="Path_89" d="M.686 0A.7.7 0 0 0 .2.205a.693.693 0 0 0-.2.48.709.709 0 0 0 .2.487.718.718 0 0 0 .974 0 .679.679 0 0 0 .2-.487.664.664 0 0 0-.2-.48A.7.7 0 0 0 .686 0z" class="cls-4" data-name="Path 89"/>
            </g>
        </g>
        <g id="Group_163" data-name="Group 163" transform="translate(18.928 2.255)">
            <g id="Group_162" data-name="Group 162">
                <path id="Path_90" d="M.679 0A.672.672 0 0 0 .2.206a.664.664 0 0 0-.2.48.669.669 0 0 0 .2.487.709.709 0 0 0 .967 0 .666.666 0 0 0 .2-.487.661.661 0 0 0-.2-.48A.673.673 0 0 0 .679 0z" class="cls-4" data-name="Path 90"/>
            </g>
        </g>
        <g id="Group_164" data-name="Group 164" transform="translate(13.259 20.778)">
            <path id="Path_91" d="M.2 1.171a.67.67 0 0 1 0-.965A.67.67 0 0 1 .686 0a.686.686 0 0 1 .486.205z" class="cls-4" data-name="Path 91"/>
        </g>
        <g id="Group_165" data-name="Group 165" transform="translate(28.772 5.272)">
            <path id="Path_92" d="M.685 0a.691.691 0 0 1 .486.2L.2 1.168A.687.687 0 0 1 .2.2.69.69 0 0 1 .685 0z" class="cls-4" data-name="Path 92"/>
        </g>
    </g>
</svg>
