<svg xmlns="http://www.w3.org/2000/svg" width="55.22" height="57.465" viewBox="0 0 55.22 57.465">
    <defs>
        <style>
            .cls-1{fill:#c6c632}
        </style>
    </defs>
    <g id="geolocation">
        <path id="Path_49" d="M55.219 29.855a27.015 27.015 0 0 0-2.8-11.975c1.433-2.837 2.131-5.018 2.131-6.656A11.222 11.222 0 0 0 35.57 3.11a28.094 28.094 0 0 0-7.961-.865 27.833 27.833 0 0 0-22.4 11.768 1.122 1.122 0 1 0 1.821 1.312A27.016 27.016 0 0 1 9.187 12.7a20.671 20.671 0 0 0 4.175 3.84 41.577 41.577 0 0 0-2.123 12.188H2.272a24.151 24.151 0 0 1 .97-5.719 1.122 1.122 0 1 0-2.152-.637A26.332 26.332 0 0 0 0 29.855c0 14.918 12.765 27.61 27.61 27.61 14.918 0 27.61-12.765 27.61-27.61zm-41.734 1.122h13v7.881a24.983 24.983 0 0 0-11.162 3.082 39.454 39.454 0 0 1-1.838-10.963zm13 10.127v14.023c-4.906-.808-8.531-6.374-10.393-11.043A22.674 22.674 0 0 1 26.487 41.1zm2.245 14.021V41.1a22.805 22.805 0 0 1 10.012 2.764c-2.324 6.426-6.047 10.593-10.01 11.261zM39.45 41.7a25.13 25.13 0 0 0-10.718-2.84v-7.884h12.33A42.584 42.584 0 0 1 39.45 41.7zM28.732 4.5a25.93 25.93 0 0 1 5.243.517 11.185 11.185 0 0 0-1.876 6.21c0 1.609.673 3.745 2.054 6.5a23.622 23.622 0 0 1-5.421.878zm-2.245.085v14.02a22.672 22.672 0 0 1-10.393-2.979c1.863-4.671 5.49-10.236 10.393-11.043zm2.245 16.27a25.811 25.811 0 0 0 6.5-1.1 95.416 95.416 0 0 0 5.856 8.984H28.732zm22.344-.5a24.8 24.8 0 0 1 1.87 8.384h-7.385a98.07 98.07 0 0 0 5.515-8.384zm-7.753-18.1a8.989 8.989 0 0 1 8.977 8.969c0 4.115-6.527 13.437-8.979 16.762-2.444-3.313-8.979-12.641-8.979-16.762a8.982 8.982 0 0 1 8.98-8.979zm-32.53 8.867a25.86 25.86 0 0 1 8.948-5.306 25.09 25.09 0 0 0-5.56 8.552 18.239 18.239 0 0 1-3.388-3.246zm4.53 6.648a24.983 24.983 0 0 0 11.164 3.082v7.881h-13a39.454 39.454 0 0 1 1.836-10.963zM2.271 30.977h8.968a41.577 41.577 0 0 0 2.123 12.188 20.678 20.678 0 0 0-4.211 3.884 25.309 25.309 0 0 1-6.88-16.072zm8.488 17.653a18.209 18.209 0 0 1 3.422-3.289 25.044 25.044 0 0 0 5.6 8.588 25.8 25.8 0 0 1-9.02-5.3zM35.216 54a24.925 24.925 0 0 0 5.471-8.918 18.289 18.289 0 0 1 3.773 3.548A25.784 25.784 0 0 1 35.216 54zm10.852-6.95a20.76 20.76 0 0 0-4.628-4.168 44.6 44.6 0 0 0 1.867-11.905h9.64a25.311 25.311 0 0 1-6.879 16.073zm0 0" class="cls-1" data-name="Path 49"/>
        <path id="Path_50" d="M341.612 61.224A5.612 5.612 0 1 0 336 55.612a5.618 5.618 0 0 0 5.612 5.612zm0-8.979a3.367 3.367 0 1 1-3.367 3.367 3.371 3.371 0 0 1 3.367-3.367zm0 0" class="cls-1" data-name="Path 50" transform="translate(-298.289 -44.388)"/>
        <path id="Path_51" d="M24 156.122A1.122 1.122 0 1 0 25.122 155 1.123 1.123 0 0 0 24 156.122zm0 0" class="cls-1" data-name="Path 51" transform="translate(-21.307 -137.603)"/>
    </g>
</svg>
