<?xml version="1.0" standalone="no"?>
<!DOCTYPE svg PUBLIC "-//W3C//DTD SVG 20010904//EN"
 "http://www.w3.org/TR/2001/REC-SVG-20010904/DTD/svg10.dtd">
<svg version="1.0" xmlns="http://www.w3.org/2000/svg"
 width="600.000000pt" height="422.000000pt" viewBox="0 0 600.000000 422.000000"
 preserveAspectRatio="xMidYMid meet">
<defs>
        <style>
            .cls-1{fill:#1e201d;opacity:.26}
        </style>
    </defs>
<g transform="translate(0.000000,422.000000) scale(0.100000,-0.100000)"
fill="#000000" stroke="none">
<path class="cls-1" d="M3788 4200 c-103 -55 -145 -187 -92 -294 9 -17 363 -379 787 -803
l772 -773 -2535 0 c-1756 0 -2547 -3 -2573 -11 -46 -13 -109 -67 -131 -113
-23 -48 -21 -147 4 -195 26 -51 82 -97 136 -110 30 -8 782 -11 2571 -11 l2528
0 -782 -782 -781 -783 -13 -58 c-22 -102 18 -194 107 -244 48 -28 148 -31 197
-7 44 22 1974 1950 1998 1996 24 47 26 146 3 191 -22 44 -1950 1974 -1996
1998 -50 26 -149 25 -200 -1z"/>
</g>
</svg>
