<svg xmlns="http://www.w3.org/2000/svg" width="63.688" height="40.438" viewBox="0 0 63.688 40.438">
    <defs>
        <style>
            .cls-1{fill:#09aeff}
        </style>
    </defs>
    <g id="group" transform="translate(0 -92.25)">
        <g id="Group_70" data-name="Group 70" transform="translate(0 92.25)">
            <path id="Path_38" d="M55.081 110.043a7.271 7.271 0 1 0-8.342 0 12.6 12.6 0 0 0-4.3 2.52 16.3 16.3 0 0 0-5.9-3.213 9.212 9.212 0 1 0-9.527 0 16.438 16.438 0 0 0-5.834 3.176 12.7 12.7 0 0 0-4.247-2.47 7.271 7.271 0 1 0-8.342 0A12.763 12.763 0 0 0 0 122.116v.832a.054.054 0 0 0 .05.05h15.412a16.949 16.949 0 0 0-.139 2.13v.857a6.7 6.7 0 0 0 6.7 6.7H41.56a6.7 6.7 0 0 0 6.7-6.7v-.857a16.949 16.949 0 0 0-.139-2.13h15.517a.054.054 0 0 0 .05-.05v-.832a12.812 12.812 0 0 0-8.607-12.073zm-9.426-5.961a5.255 5.255 0 1 1 5.356 5.255h-.2a5.247 5.247 0 0 1-5.156-5.254zm-21.095-2.62a7.2 7.2 0 1 1 7.611 7.183h-.831a7.206 7.206 0 0 1-6.78-7.183zm-17.087 2.621a5.255 5.255 0 1 1 5.356 5.255h-.2a5.256 5.256 0 0 1-5.156-5.255zm8.342 16.886H2.041a10.767 10.767 0 0 1 10.61-9.615h.149a10.655 10.655 0 0 1 6.868 2.558 16.546 16.546 0 0 0-3.853 7.057zm30.407 5.015a4.7 4.7 0 0 1-4.688 4.688H22a4.7 4.7 0 0 1-4.688-4.688v-.857a14.475 14.475 0 0 1 14.028-14.454c.139.013.29.013.428.013s.29 0 .428-.013a14.475 14.475 0 0 1 14.025 14.454zm1.5-5.015a16.5 16.5 0 0 0-3.818-7.006 10.706 10.706 0 0 1 6.931-2.609h.151a10.767 10.767 0 0 1 10.61 9.615z" class="cls-1" data-name="Path 38" transform="translate(0 -92.25)"/>
        </g>
    </g>
</svg>
