<svg xmlns="http://www.w3.org/2000/svg" width="47.279" height="41.554" viewBox="0 0 47.279 41.554">
    <defs>
        <style>
            .cls-1{fill:url(#linear-gradient)}
        </style>
        <linearGradient id="linear-gradient" x1=".5" x2=".5" y2="1" gradientUnits="objectBoundingBox">
            <stop offset="0" stop-color="#1040c6"/>
            <stop offset="1" stop-color="#09aeff"/>
        </linearGradient>
    </defs>
    <g id="portfolio">
        <path id="Path_2" d="M211 240h8.311v2.77H211zm0 0" class="cls-1" data-name="Path 2" transform="translate(-191.516 -217.838)"/>
        <path id="Path_3" d="M38.357 95.194h-7.792v1.386a1.385 1.385 0 0 1-1.385 1.385H18.1a1.385 1.385 0 0 1-1.385-1.385v-1.386H8.922a4.151 4.151 0 0 1-3.942-2.84L0 77.41v30.25a4.16 4.16 0 0 0 4.155 4.155h38.969a4.16 4.16 0 0 0 4.155-4.155V77.411L42.3 92.354a4.15 4.15 0 0 1-3.941 2.841zm0 0" class="cls-1" data-name="Path 3" transform="translate(0 -70.262)"/>
        <path id="Path_4" d="M52.606 0H41.525a4.16 4.16 0 0 0-4.155 4.155v1.386H25.809l5.224 15.675a1.385 1.385 0 0 0 1.315.947h7.792v-1.386a1.385 1.385 0 0 1 1.385-1.385h11.081a1.385 1.385 0 0 1 1.385 1.385v1.385h7.792a1.385 1.385 0 0 0 1.315-.947l5.224-15.674H56.761V4.155A4.16 4.16 0 0 0 52.606 0zM40.14 5.541V4.155a1.386 1.386 0 0 1 1.385-1.385h11.081a1.386 1.386 0 0 1 1.385 1.385v1.386zm0 0" class="cls-1" data-name="Path 4" transform="translate(-23.426)"/>
    </g>
</svg>
