<svg xmlns="http://www.w3.org/2000/svg" width="56.113" height="39.61" viewBox="0 0 56.113 39.61">
    <defs>
        <style>
            .cls-1{opacity:.47}.cls-2{fill:#030b61}
        </style>
    </defs>
    <g id="Quotemarks-right" class="cls-1">
        <path id="Path_103" d="M12.445 9.412a12.444 12.444 0 0 0-.722 24.868c.113 1.22.028 4.541-3.154 9.162a.876.876 0 0 0 .1 1.117c1.3 1.3 2.107 2.123 2.671 2.7.737.75 1.074 1.093 1.566 1.54a.877.877 0 0 0 1.164.013 33.6 33.6 0 0 0 10.817-27.02c-.523-7.174-5.755-12.38-12.442-12.38zM13.5 46.947c-.239-.235-.511-.513-.913-.921-.488-.5-1.158-1.179-2.173-2.2 3.863-5.952 3.133-10.191 2.814-10.8a.908.908 0 0 0-.788-.483 10.691 10.691 0 0 1 0-21.381c5.742 0 10.239 4.523 10.694 10.753A32.045 32.045 0 0 1 13.5 46.947z" class="cls-2" data-name="Path 103" transform="translate(-.001 -9.412)"/>
        <path id="Path_104" d="M60.4 21.792c-.521-7.174-5.754-12.38-12.44-12.38a12.444 12.444 0 0 0-.721 24.868c.113 1.219.027 4.539-3.156 9.162a.876.876 0 0 0 .1 1.117c1.3 1.3 2.1 2.116 2.664 2.689.741.755 1.079 1.1 1.574 1.548a.877.877 0 0 0 1.164.011A33.606 33.606 0 0 0 60.4 21.792zM49.02 46.947a76.416 76.416 0 0 1-.92-.929c-.488-.5-1.155-1.176-2.166-2.19 3.863-5.953 3.134-10.191 2.815-10.8a.911.911 0 0 0-.789-.483 10.691 10.691 0 1 1 0-21.381c5.741 0 10.239 4.523 10.694 10.754a32.051 32.051 0 0 1-9.634 25.029z" class="cls-2" data-name="Path 104" transform="translate(-4.377 -9.412)"/>
    </g>
</svg>
