<svg xmlns="http://www.w3.org/2000/svg" width="73.951" height="43.535" viewBox="0 0 73.951 43.535">
    <defs>
        <style>
            .cls-1{fill:url(#linear-gradient)}
        </style>
        <linearGradient id="linear-gradient" x1=".5" x2=".5" y2="1" gradientUnits="objectBoundingBox">
            <stop offset="0" stop-color="#1040c6"/>
            <stop offset="1" stop-color="#09aeff"/>
        </linearGradient>
    </defs>
    <path id="right-arrow_2_" d="M49.8 5.329a2.979 2.979 0 0 0-3.727 0 1.956 1.956 0 0 0 0 3.089l18.9 15.822H2.609A2.413 2.413 0 0 0 0 26.426a2.433 2.433 0 0 0 2.609 2.216h62.359l-18.9 15.792a1.988 1.988 0 0 0 0 3.12 2.979 2.979 0 0 0 3.727 0l23.374-19.567a1.916 1.916 0 0 0 0-3.089z" class="cls-1" data-name="right-arrow (2)" transform="translate(0 -4.674)"/>
</svg>
