<svg xmlns="http://www.w3.org/2000/svg" width="44.7" height="31.43" viewBox="0 0 44.7 31.43">
    <defs>
        <style>
            .cls-1{fill:#1e201d;opacity:.26}
        </style>
    </defs>
    <g transform="translate(0.000000,31.43) scale(0.100000,-0.100000)" stroke="none">
    <path id="right-arrow_2_" d="M14.6 5.147a1.585 1.585 0 1 1 2.253 2.23L5.43 18.8h37.693a1.569 1.569 0 0 1 1.577 1.578 1.587 1.587 0 0 1-1.577 1.6H5.43l11.423 11.4a1.617 1.617 0 0 1 0 2.253 1.578 1.578 0 0 1-2.253 0L.473 21.5a1.551 1.551 0 0 1 0-2.23z" class="cls-1" data-name="right-arrow (2)" transform="translate(0 -4.674)"/>
</svg>
