<svg xmlns="http://www.w3.org/2000/svg" width="66.535" height="51.324" viewBox="0 0 66.535 51.324">
    <defs>
        <style>
            .cls-1{fill:#fff}
        </style>
    </defs>
    <g id="tap" transform="rotate(88 33 33.701)">
        <path id="Path_32" d="M44.222 56.337h-.092a5.057 5.057 0 0 0-3.409 1.3 5.316 5.316 0 0 0-4.936-3.6 5.121 5.121 0 0 0-3.659 1.563 5.24 5.24 0 0 0-4.676-2.991h-.1a4.8 4.8 0 0 0-3.01 1v-12.7a5.452 5.452 0 0 0-5.3-5.567 5.442 5.442 0 0 0-5.283 5.563l-.024 25.2-1.426-1.732a7.194 7.194 0 0 0-5.084-2.67 7.079 7.079 0 0 0-5.3 1.877l-1.24 1.036a1.1 1.1 0 0 0-.275 1.358l12.067 23.194a12.441 12.441 0 0 0 10.955 6.883h13.6v-.012c6.895 0 12.485-5.983 12.492-13.329 0-3.287-.01-5.737-.008-7.722.007-5.312 0-7.272-.012-13.125a5.415 5.415 0 0 0-5.279-5.527zm3.068 18.644c0 1.986-.005 4.445-.009 7.732-.006 6.131-4.635 11.131-10.318 11.131H23.431a10.243 10.243 0 0 1-9-5.7L2.777 65.752l.575-.48.043-.038a4.9 4.9 0 0 1 3.677-1.321 5.006 5.006 0 0 1 3.531 1.87l3.377 4.109a1.1 1.1 0 0 0 1.955-.7l.02-28.281a3.247 3.247 0 0 1 3.091-3.358 3.248 3.248 0 0 1 3.09 3.361V65.514a1.1 1.1 0 1 0 2.206 0V58a3.093 3.093 0 0 1 3.01-3.183h.1a3.22 3.22 0 0 1 3.1 3.326v6.671a1.1 1.1 0 1 0 2.206 0v-5.23a3.05 3.05 0 1 1 6.067 0v4.938a1.1 1.1 0 1 0 2.206 0v-2.675a3.2 3.2 0 0 1 3.1-3.3h.092a3.2 3.2 0 0 1 3.064 3.323c.013 5.848.011 7.806 0 13.114zm0 0" class="cls-1" data-name="Path 32" transform="translate(0 -30.473)"/>
        <path id="Path_33" d="M65.713 10.917a1.1 1.1 0 0 0 1.1-1.1 7.645 7.645 0 0 1 15.289 0 1.1 1.1 0 1 0 2.206 0 9.851 9.851 0 0 0-19.7 0 1.1 1.1 0 0 0 1.105 1.1zm0 0" class="cls-1" data-name="Path 33" transform="translate(-55.455)"/>
    </g>
</svg>
