<svg xmlns="http://www.w3.org/2000/svg" width="49.956" height="49.956" viewBox="0 0 49.956 49.956">
    <defs>
        <style>
            .cls-1{fill:#fff}
        </style>
        <linearGradient id="linear-gradient" x1=".5" x2=".5" y2="1" gradientUnits="objectBoundingBox">
            <stop offset="0" stop-color="#1040c6"/>
            <stop offset="1" stop-color="#09aeff"/>
        </linearGradient>
    </defs>
    <g id="digital-marketing" transform="translate(-.001)">
        <g id="Group_46" data-name="Group 46" transform="translate(22.862 41.941)">
            <g id="Group_45" data-name="Group 45">
                <path id="Path_22" d="M235.967 430.145a.975.975 0 1 0 .286.69.983.983 0 0 0-.286-.69z" class="cls-1" data-name="Path 22" transform="translate(-234.301 -429.859)"/>
            </g>
        </g>
        <g id="Group_48" data-name="Group 48" transform="translate(.001 25.071)">
            <g id="Group_47" data-name="Group 47">
                <path id="Path_23" d="M29.173 265.113v-7.179a.976.976 0 0 0-1.34-.905L11.02 263.8H5.6a5.6 5.6 0 0 0 0 11.208h.65v5.859a.976.976 0 0 0 .976.976h3.983a.976.976 0 0 0 .976-.976v-5.389l15.648 6.294a.976.976 0 0 0 1.34-.905v-7.179a4.4 4.4 0 0 0 0-8.575zm-18.94 14.778H8.2v-4.884h2.032v4.884zm0-6.835H5.6a3.652 3.652 0 1 1 0-7.3h4.628zm16.988 6.367l-15.036-6.048v-7.941l10.677-4.3v9.683a.976.976 0 1 0 1.951 0v-10.469l2.408-.97zm1.951-7.78v-4.485a2.445 2.445 0 0 1 0 4.485z" class="cls-1" data-name="Path 23" transform="translate(-.001 -256.958)"/>
            </g>
        </g>
        <g id="Group_50" data-name="Group 50" transform="translate(35.403 36.567)">
            <g id="Group_49" data-name="Group 49">
                <path id="Path_24" d="M369.335 374.775h-5.524a.976.976 0 0 0 0 1.951h5.524a.976.976 0 0 0 0-1.951z" class="cls-1" data-name="Path 24" transform="translate(-362.835 -374.775)"/>
            </g>
        </g>
        <g id="Group_52" data-name="Group 52" transform="translate(33.801 29.131)">
            <g id="Group_51" data-name="Group 51">
                <path id="Path_25" d="M349.989 298.856a.976.976 0 0 0-1.38 0l-1.906 1.906a.976.976 0 1 0 1.38 1.38l1.906-1.906a.976.976 0 0 0 0-1.38z" class="cls-1" data-name="Path 25" transform="translate(-346.418 -298.57)"/>
            </g>
        </g>
        <g id="Group_54" data-name="Group 54" transform="translate(33.809 41.942)">
            <g id="Group_53" data-name="Group 53">
                <path id="Path_26" d="M350.134 432.119l-1.969-1.969a.976.976 0 0 0-1.38 1.38l1.969 1.969a.976.976 0 0 0 1.38-1.38z" class="cls-1" data-name="Path 26" transform="translate(-346.499 -429.864)"/>
            </g>
        </g>
        <g id="Group_56" data-name="Group 56" transform="translate(5.27)">
            <g id="Group_55" data-name="Group 55">
                <path id="Path_27" d="M94.785 0H76.637a3.907 3.907 0 0 0-3.9 3.9v.39H56.343A2.344 2.344 0 0 0 54 6.635v15.416a2.344 2.344 0 0 0 2.342 2.342h1.008v2.992a.976.976 0 0 0 1.666.69l3.684-3.683h19.38a2.344 2.344 0 0 0 2.342-2.342v-2.926h10.363a3.907 3.907 0 0 0 3.9-3.9V3.9a3.907 3.907 0 0 0-3.9-3.9zM82.47 22.051a.391.391 0 0 1-.39.39H62.294a.976.976 0 0 0-.69.286l-2.3 2.3v-1.61a.976.976 0 0 0-.976-.976h-1.985a.391.391 0 0 1-.39-.39V6.635a.391.391 0 0 1 .39-.39h16.391v8.976a3.907 3.907 0 0 0 3.9 3.9h5.836zm14.267-6.83a1.954 1.954 0 0 1-1.951 1.951H76.637a1.954 1.954 0 0 1-1.951-1.951V3.9a1.954 1.954 0 0 1 1.951-1.951h18.148A1.954 1.954 0 0 1 96.736 3.9z" class="cls-1" data-name="Path 27" transform="translate(-54.001)"/>
            </g>
        </g>
        <g id="Group_58" data-name="Group 58" transform="translate(32.758 4.731)">
            <g id="Group_57" data-name="Group 57">
                <path id="Path_28" d="M343.877 52.472l-6.677-3.855a.976.976 0 0 0-1.464.845v7.711a.976.976 0 0 0 1.464.845l6.678-3.855a.976.976 0 0 0 0-1.69zm-6.19 3.01v-4.331l3.751 2.165z" class="cls-1" data-name="Path 28" transform="translate(-335.736 -48.486)"/>
            </g>
        </g>
        <g id="Group_60" data-name="Group 60" transform="translate(10.198 10.245)">
            <g id="Group_59" data-name="Group 59">
                <path id="Path_29" d="M115.245 105h-9.757a.976.976 0 1 0 0 1.951h9.757a.976.976 0 0 0 0-1.951z" class="cls-1" data-name="Path 29" transform="translate(-104.512 -105)"/>
            </g>
        </g>
        <g id="Group_62" data-name="Group 62" transform="translate(19.955 15.709)">
            <g id="Group_61" data-name="Group 61">
                <path id="Path_30" d="M206.176 161.286a.975.975 0 1 0 .286.69.983.983 0 0 0-.286-.69z" class="cls-1" data-name="Path 30" transform="translate(-204.511 -161)"/>
            </g>
        </g>
        <g id="Group_64" data-name="Group 64" transform="translate(10.198 15.709)">
            <g id="Group_63" data-name="Group 63">
                <path id="Path_31" d="M111.585 161h-6.1a.976.976 0 1 0 0 1.951h6.1a.976.976 0 1 0 0-1.951z" class="cls-1" data-name="Path 31" transform="translate(-104.512 -161)"/>
            </g>
        </g>
    </g>
</svg>
