<svg xmlns="http://www.w3.org/2000/svg" width="39.915" height="49.893" viewBox="0 0 39.915 49.893">
    <defs>
        <style>
            .cls-1{fill:#fff}
        </style>
    </defs>
    <g id="web_1_" data-name="web (1)" transform="translate(-48)">
        <g id="Group_6" data-name="Group 6" transform="translate(48)">
            <g id="Group_5" data-name="Group 5">
                <path id="Path_14" d="M83.757 0h-31.6A4.163 4.163 0 0 0 48 4.158V26.61a4.163 4.163 0 0 0 4.158 4.158h11.37l-1.187 4.158h-2.7v1.663h16.632v-1.664h-2.7l-1.187-4.158h11.371a4.163 4.163 0 0 0 4.158-4.158V4.158A4.163 4.163 0 0 0 83.757 0zM64.071 34.925l1.187-4.158h5.4l1.187 4.158zm22.18-8.315a2.5 2.5 0 0 1-2.494 2.49h-31.6a2.5 2.5 0 0 1-2.495-2.495v-1.658h36.589zm0-3.326H49.663V4.158a2.5 2.5 0 0 1 2.495-2.495h31.6a2.5 2.5 0 0 1 2.495 2.495z" class="cls-1" data-name="Path 14" transform="translate(-48)"/>
            </g>
        </g>
        <g id="Group_8" data-name="Group 8" transform="translate(50.495 38.251)">
            <g id="Group_7" data-name="Group 7">
                <path id="Path_15" d="M96.115 368H72.832a.832.832 0 0 0-.832.832v9.979a.832.832 0 0 0 .832.832h23.283a.832.832 0 0 0 .832-.832v-9.979a.832.832 0 0 0-.832-.832zm-.832 9.979h-21.62v-8.316h21.62z" class="cls-1" data-name="Path 15" transform="translate(-72 -368)"/>
            </g>
        </g>
        <g id="Group_10" data-name="Group 10" transform="translate(53.952 45.079)">
            <g id="Group_9" data-name="Group 9">
                <path id="Rectangle_18" d="M0 0h2v2H0z" class="cls-1" data-name="Rectangle 18" transform="translate(.005 -.132)"/>
            </g>
        </g>
        <g id="Group_12" data-name="Group 12" transform="translate(53.952 41.578)">
            <g id="Group_11" data-name="Group 11">
                <path id="Rectangle_19" d="M0 0h2v1H0z" class="cls-1" data-name="Rectangle 19" transform="translate(.005 .369)"/>
            </g>
        </g>
        <g id="Group_14" data-name="Group 14" transform="translate(57.453 41.578)">
            <g id="Group_13" data-name="Group 13">
                <path id="Rectangle_20" d="M0 0h1v1H0z" class="cls-1" data-name="Rectangle 20" transform="translate(-.496 .369)"/>
            </g>
        </g>
        <g id="Group_16" data-name="Group 16" transform="translate(60.955 41.578)">
            <g id="Group_15" data-name="Group 15">
                <path id="Rectangle_21" d="M0 0h1v1H0z" class="cls-1" data-name="Rectangle 21" transform="translate(.003 .369)"/>
            </g>
        </g>
        <g id="Group_18" data-name="Group 18" transform="translate(67.082 41.578)">
            <g id="Group_17" data-name="Group 17">
                <path id="Rectangle_22" d="M0 0h2v1H0z" class="cls-1" data-name="Rectangle 22" transform="translate(-.125 .369)"/>
            </g>
        </g>
        <g id="Group_20" data-name="Group 20" transform="translate(63.581 41.578)">
            <g id="Group_19" data-name="Group 19">
                <path id="Rectangle_23" d="M0 0h1v1H0z" class="cls-1" data-name="Rectangle 23" transform="translate(.377 .369)"/>
            </g>
        </g>
        <g id="Group_22" data-name="Group 22" transform="translate(70.583 45.079)">
            <g id="Group_21" data-name="Group 21">
                <path id="Rectangle_24" d="M0 0h1v2H0z" class="cls-1" data-name="Rectangle 24" transform="translate(.374 -.132)"/>
            </g>
        </g>
        <g id="Group_24" data-name="Group 24" transform="translate(70.583 41.578)">
            <g id="Group_23" data-name="Group 23">
                <path id="Rectangle_25" d="M0 0h1v1H0z" class="cls-1" data-name="Rectangle 25" transform="translate(.374 .369)"/>
            </g>
        </g>
        <g id="Group_26" data-name="Group 26" transform="translate(57.453 45.079)">
            <g id="Group_25" data-name="Group 25">
                <path id="Rectangle_26" d="M0 0h12v2H0z" class="cls-1" data-name="Rectangle 26" transform="translate(-.496 -.132)"/>
            </g>
        </g>
        <g id="Group_28" data-name="Group 28" transform="translate(77.104 38.251)">
            <g id="Group_27" data-name="Group 27">
                <path id="Path_16" d="M332.158 368a4.158 4.158 0 0 0-4.158 4.158v3.326a4.158 4.158 0 0 0 8.316 0v-3.326a4.158 4.158 0 0 0-4.158-4.158zm2.495 7.484a2.495 2.495 0 1 1-4.989 0v-3.326a2.495 2.495 0 1 1 4.989 0z" class="cls-1" data-name="Path 16" transform="translate(-328 -368)"/>
            </g>
        </g>
        <g id="Group_30" data-name="Group 30" transform="translate(80.212 41.578)">
            <g id="Group_29" data-name="Group 29">
                <path id="Rectangle_27" d="M0 0h2v1H0z" class="cls-1" data-name="Rectangle 27" transform="translate(-.254 .369)"/>
            </g>
        </g>
        <g id="Group_32" data-name="Group 32" transform="translate(65.488 7.273)">
            <g id="Group_31" data-name="Group 31">
                <path id="Rectangle_28" d="M0 0h12.102v1.662H0z" class="cls-1" data-name="Rectangle 28" transform="rotate(-74.032 7.716 5.817)"/>
            </g>
        </g>
        <g id="Group_34" data-name="Group 34" transform="translate(57.147 8.508)">
            <g id="Group_33" data-name="Group 33">
                <path id="Path_17" d="M142.356 83.133l-1.064-1.277-4.992 4.158a.832.832 0 0 0 0 1.277l4.989 4.158 1.064-1.277-4.223-3.519z" class="cls-1" data-name="Path 17" transform="translate(-136.004 -81.856)"/>
            </g>
        </g>
        <g id="Group_36" data-name="Group 36" transform="translate(72.414 8.508)">
            <g id="Group_35" data-name="Group 35">
                <path id="Path_18" d="M289.04 86.12a.83.83 0 0 0-.106-.106l-4.989-4.158-1.064 1.277 4.223 3.519-4.223 3.519 1.064 1.277 4.989-4.158a.832.832 0 0 0 .106-1.17z" class="cls-1" data-name="Path 18" transform="translate(-282.88 -81.856)"/>
            </g>
        </g>
    </g>
</svg>
